<svg xmlns="http://www.w3.org/2000/svg" viewBox="0 0 97.55 71.29"><defs><style>.cls-1{fill:#d75e7d;}.cls-2{fill:#b5bfc5;}.cls-3{fill:#fff;}.cls-4{fill:#c2d0d5;}.cls-5{fill:#000105;}.cls-6{fill:none;stroke:#b2c1c8;stroke-linecap:round;stroke-linejoin:round;stroke-width:2px;}</style></defs><title>Ресурс 16</title><g id="Слой_2" data-name="Слой 2"><g id="Слой_2-2" data-name="Слой 2"><path class="cls-1" d="M54.78,34.31C59.47,33,80.16,30,83.27,30c3.91,0,7.35,24.66,4.61,29.13s-26,2.23-26,2.23-9.81-8.8-9.74-9.44S54.78,34.31,54.78,34.31Z"/><path class="cls-2" d="M58.39,37.65c-1.6,2.24-1.45,9.15,2.18,15.3s27,4.47,28.43,4.4c.16,0,.25.11.3.32.32,1.33-1.4,6.48-2,8.21a1.24,1.24,0,0,1-.83.79c-4.91,1.32-34.08,5-37.24,4.59C45.89,70.84,38.21,60,35,59.46s-10.48,3.42-10.2,2.37,6.15-8.52,5.87-9.36S17.24,39.26,15.64,39,1,52.74.06,52.47s8.8-21.8,8.87-25.72S-1.27,5.24.2,5.86,14.29,16.69,16.56,18.52a1.29,1.29,0,0,0,.78.27H44.07a1.27,1.27,0,0,0,1.26-1.26V1.26a1.27,1.27,0,0,1,2-1C52.6,4,62.23,15.82,64.24,18.33a1.29,1.29,0,0,0,1,.46H96.29a1.25,1.25,0,0,1,1.24,1.43c-.42,3-1,9.89-2.38,11.49C93.46,33.61,60,35.42,58.39,37.65Z"/><path class="cls-3" d="M61.61,33.4c.77,1,2.59,6.26,2.59,6.26s2.34-5.86,2.3-6.59S60.86,32.43,61.61,33.4Z"/><path class="cls-3" d="M67.64,33.94c1.66.08,2.86,6.14,2.86,6.14s2.09-6,2-6.69S66.42,33.87,67.64,33.94Z"/><path class="cls-3" d="M74.28,33.85c1.5,1.79,2.48,6.3,2.48,6.3s2.44-5.83,2.42-6.56S73.49,32.91,74.28,33.85Z"/><path class="cls-3" d="M80.33,33.33c2,.89,3.34,5.8,3.34,5.8s2-6,1.88-6.73S79.11,32.81,80.33,33.33Z"/><path class="cls-3" d="M77.12,57.79c1.36-1,3.31-5.91,3.31-5.91s1.63,6.1,1.51,6.82S76.12,58.5,77.12,57.79Z"/><path class="cls-3" d="M70.23,58.34c1.31-.34,3-6.06,3-6.06s1.93,6,1.83,6.74S69.05,58.65,70.23,58.34Z"/><path class="cls-3" d="M62.74,57.81c2.35-.3,3.85-5.58,3.85-5.58s1.06,6.23.86,6.93S61.52,58,62.74,57.81Z"/><path class="cls-4" d="M58.39,37.65c-1.6,2.24-1.45,9.15,2.18,15.3s27,4.47,28.43,4.4c.16,0,.25.11.3.32L78,63.54c-10.69,5.55-28.29-4-32.28-6.08s-2.52-1.78-.52-2.31,4-2.61,1.78-3.14a29.21,29.21,0,0,1-14.47-9.75c-5.44-6.7-15.2-23.47-15.2-23.47h79a1.25,1.25,0,0,1,1.24,1.43c-.42,3-1,9.89-2.38,11.49C93.46,33.61,60,35.42,58.39,37.65Z"/><ellipse class="cls-5" cx="73.7" cy="27.17" rx="1.4" ry="2.65" transform="translate(-4.63 33.03) rotate(-24.52)"/><ellipse class="cls-5" cx="84.6" cy="27.17" rx="2.65" ry="1.4" transform="translate(24.77 92.87) rotate(-65.48)"/><path class="cls-6" d="M42.05,38.42s-3.42-3.77,0-9.92"/><path class="cls-6" d="M50.22,39.15s-5.25-4.56,0-12"/></g></g></svg>