<svg xmlns="http://www.w3.org/2000/svg" viewBox="0 0 86.13 85.37"><defs><style>.cls-1{fill:#e7a7a6;}.cls-2{fill:#e39790;}.cls-3{fill:#db857a;}.cls-4{fill:#d46f6a;}.cls-5{fill:#c86261;}.cls-6{fill:#d96c68;}.cls-7{fill:#dc878f;}.cls-8{fill:#000105;}.cls-9{fill:none;stroke:#d88c81;stroke-linecap:round;stroke-linejoin:round;stroke-width:3px;}</style></defs><title>Ресурс 17</title><g id="Слой_2" data-name="Слой 2"><g id="Слой_2-2" data-name="Слой 2"><path class="cls-1" d="M62.48,58.87c-2.32,1.12-7.6,3.07-12.15,2.88S45.69,66.2,48,66.57a50.94,50.94,0,0,0,11.32,0c2.87-.46,2,2.51-.09,5.29s-6.05,9.28-4.74,12.25,5.57.37,8-4.46S74.54,63,77.6,62.4,62.48,58.87,62.48,58.87Z"/><path class="cls-2" d="M61.07,54.55l9.66-12.07a3.09,3.09,0,0,1,5.39,1.15l4.12,15.66a3.08,3.08,0,0,1-3.76,3.77l-13.79-3.6A3.08,3.08,0,0,1,61.07,54.55Z"/><path class="cls-3" d="M59,45l8.44-19a4.16,4.16,0,0,1,7.42-.36l10.75,19A4.16,4.16,0,0,1,82,50.8l-19.19,0A4.16,4.16,0,0,1,59,45Z"/><path class="cls-4" d="M57.26,38.31l-2-22.1A4.44,4.44,0,0,1,61.93,12L81.81,24.08a4.43,4.43,0,0,1-.13,7.65l-17.84,10A4.43,4.43,0,0,1,57.26,38.31Z"/><path class="cls-5" d="M50.42,31.25,38.51,10.35a4.8,4.8,0,0,1,4.75-7.14l25,3a4.81,4.81,0,0,1,3.3,7.61L58.47,31.71A4.81,4.81,0,0,1,50.42,31.25Z"/><path class="cls-6" d="M8.58,12c.73-.9,19.3-6.06,23.75-9.15s14.06-.2,15.31,1.33c1.34,1.9,4.48,14.5.15,17.22S34.56,26.93,26,24,4.91,16.55,8.58,12Z"/><path class="cls-7" d="M18.69,16.34C14.36,16.34,5,14.78.1,2.12A1.57,1.57,0,0,1,1,.1,1.58,1.58,0,0,1,3,1C8.48,15.2,19.89,13.2,20.37,13.11a1.57,1.57,0,0,1,1.83,1.23A1.55,1.55,0,0,1,21,16.17,13.07,13.07,0,0,1,18.69,16.34Z"/><circle class="cls-8" cx="36.32" cy="9.43" r="1.76"/><path class="cls-9" d="M49.9,28.17S49,36.45,41,36.83"/><path class="cls-9" d="M55.59,32.5S54.48,44.29,44.21,44.82"/></g></g></svg>