<svg xmlns="http://www.w3.org/2000/svg" viewBox="0 0 120.24 120.24"><defs><style>.cls-1{fill:#f2f2f2;}.cls-2{fill:#bc6e47;}.cls-3{fill:#db8144;}.cls-4{fill:#75503a;}.cls-5{fill:#000105;}.cls-6{fill:#fff;}.cls-7{fill:#343131;}.cls-8{fill:#e8ab44;}.cls-9{fill:#714c38;}</style></defs><title>1Ресурс 3</title><g id="Слой_2" data-name="Слой 2"><g id="Слой_2-2" data-name="Слой 2"><circle class="cls-1" cx="60.12" cy="60.12" r="60.12"/><path class="cls-2" d="M100.46,98a4.27,4.27,0,0,1-1.26,3,4.16,4.16,0,0,1-1.92,1.1,3.93,3.93,0,0,1-1.09.15H55.61a4.27,4.27,0,0,1,0-8.54H96.19a4,4,0,0,1,1.34.23A4.29,4.29,0,0,1,100.46,98Z"/><path class="cls-2" d="M19.32,75.66C21.22,61,34.84,47.48,48.08,47.48S75.82,60.18,77.3,74.89c2.64,26.13-9.79,28-29,27.28C26.55,101.31,16.2,99.75,19.32,75.66Z"/><path class="cls-3" d="M73.13,26.46s3.31-7.64-.9-10.57-9.48,1.63-9.48,1.63Z"/><path class="cls-3" d="M23,26.45s-3.32-7.65.89-10.58,9.49,1.63,9.49,1.63Z"/><path class="cls-4" d="M71.12,26.08s2.46-5.66-.66-7.83-7,1.21-7,1.21Z"/><path class="cls-4" d="M25,26.08s-2.45-5.66.66-7.83,7,1.21,7,1.21Z"/><path class="cls-3" d="M77.89,40a22.75,22.75,0,0,1-.19,3c-.1.76-.24,1.5-.4,2.24a24,24,0,0,1-4.45,9.31c-5.31,7-14.34,11.54-24.59,11.54C38.21,66.1,29.32,61.69,24,55a24.31,24.31,0,0,1-4.65-9.31,24.67,24.67,0,0,1-.53-2.85A22.91,22.91,0,0,1,18.63,40a22.36,22.36,0,0,1,.73-5.74C22.32,22.65,34.13,14,48.26,14s25.86,8.63,28.87,20.2A22.37,22.37,0,0,1,77.89,40Z"/><circle class="cls-5" cx="36.05" cy="34.18" r="3.01"/><circle class="cls-5" cx="59.69" cy="34.18" r="3.01"/><circle class="cls-6" cx="37.16" cy="33.24" r="1.11"/><circle class="cls-6" cx="60.8" cy="33.24" r="1.11"/><path class="cls-7" d="M77.3,45.25a24,24,0,0,1-4.45,9.31L62.67,45.25Z"/><path class="cls-7" d="M77.89,40a22.75,22.75,0,0,1-.19,3L67.51,38.94l9.62-4.78A22.37,22.37,0,0,1,77.89,40Z"/><path class="cls-7" d="M33.73,45.64,24,55a24.31,24.31,0,0,1-4.65-9.31Z"/><path class="cls-7" d="M28.56,39.26l-9.77,3.53A22.91,22.91,0,0,1,18.63,40a22.36,22.36,0,0,1,.73-5.74Z"/><polygon class="cls-8" points="56.68 50.43 39.6 50.43 42.66 30.6 53.62 30.6 56.68 50.43"/><path class="cls-9" d="M39.6,51.16H56.68s-.67,7.52-8.06,7.52S39.6,51.16,39.6,51.16Z"/><path class="cls-9" d="M80.11,94.93v6.74a1.41,1.41,0,0,1-.13.62H77a1.56,1.56,0,0,1-.13-.62V94.93a1.64,1.64,0,0,1,.52-1.18H79.6A1.63,1.63,0,0,1,80.11,94.93Z"/><path class="cls-9" d="M86.56,94.93v6.74a1.41,1.41,0,0,1-.13.62h-3a1.41,1.41,0,0,1-.13-.62V94.93a1.57,1.57,0,0,1,.53-1.18h2.21A1.63,1.63,0,0,1,86.56,94.93Z"/><path class="cls-9" d="M93.5,94.93v6.74a1.41,1.41,0,0,1-.13.62h-3a1.56,1.56,0,0,1-.13-.62V94.93a1.64,1.64,0,0,1,.52-1.18H93A1.63,1.63,0,0,1,93.5,94.93Z"/><path class="cls-9" d="M100.46,98a4.27,4.27,0,0,1-1.26,3,4.16,4.16,0,0,1-1.92,1.1,1.5,1.5,0,0,1-.08-.47V94.93a1.54,1.54,0,0,1,.33-1A4.29,4.29,0,0,1,100.46,98Z"/><path class="cls-9" d="M42.76,64.36c-1,0-1.93-.06-2.26-.08a.48.48,0,0,1-.44-.51.49.49,0,0,1,.51-.44c2,.16,4.43.11,4.9-.24.78-.59,2.76-2.52,2.53-4.42a.46.46,0,0,1,.41-.52.47.47,0,0,1,.53.41c.27,2.25-1.78,4.44-2.91,5.29A7,7,0,0,1,42.76,64.36Z"/><path class="cls-9" d="M54.23,64.36A7,7,0,0,1,51,63.85c-1.12-.85-3.18-3-2.91-5.29a.49.49,0,0,1,.53-.41.46.46,0,0,1,.41.52c-.23,1.9,1.75,3.83,2.54,4.42.46.35,2.9.4,4.89.24a.48.48,0,0,1,.51.44.47.47,0,0,1-.43.51C56.16,64.3,55.24,64.36,54.23,64.36Z"/></g></g></svg>