<svg xmlns="http://www.w3.org/2000/svg" viewBox="0 0 86.28 80.08"><defs><style>.cls-1{fill:#52a662;}.cls-2{fill:#53ad6f;}.cls-3{fill:#79bc96;}</style></defs><title>Ресурс 15</title><g id="Слой_2" data-name="Слой 2"><g id="Слой_2-2" data-name="Слой 2"><path class="cls-1" d="M86.19,35.46a21.16,21.16,0,0,0-3-8,3.3,3.3,0,0,1,0-3.3A11.84,11.84,0,0,0,85,17.9,12,12,0,0,0,73,6h-.13A60.41,60.41,0,0,0,57.91,8,3.27,3.27,0,0,1,55,7.33C50,3.09,38-1,34.74.21c-2.06.76-3.39,5.11,3.74,6.36A8.36,8.36,0,0,1,43.7,9.85a3.34,3.34,0,0,1-.85,4.86c-1,.66-2,1.35-2.92,2.08a3.35,3.35,0,0,1-2.24.7c-1.25-.08-2.54-.14-3.72-.17-4.52-.12-11.23.65-14.74,4.34s-.59,6.71,3.21,4a12.5,12.5,0,0,1,1.22-.78,3.33,3.33,0,0,1,4.43,4.72,57.27,57.27,0,0,0-3,5l-.15.29c-8.53-1.22-15.56,3.23-17.5,4.78-2.14,1.72-2.37,4.88.83,5.29s4-2.85,8-3.92a5.73,5.73,0,0,1,1.06-.18,3.31,3.31,0,0,1,3.23,4.4c-.28.85-.53,1.68-.77,2.49a3.28,3.28,0,0,1-1,1.57c-2.77,2.46-6.4,4.47-14,9.82a3.4,3.4,0,0,0-.47.38c-11.28,11.1,2.47,10.44,6.9,4A7,7,0,0,1,13,62.35a3.34,3.34,0,0,1,4.64,2.37,12,12,0,0,0,11,9.31l.74,0a12,12,0,0,0,11.1-7.45,3.2,3.2,0,0,1,4.11-1.76,7.2,7.2,0,0,1,3.38,2.46C49.38,69.54,50.1,79.25,52.32,80s7.4-1.6,2-12.83c-2.71-5.7-6.44-8.49-9.45-9.84a3.33,3.33,0,0,1-1.79-4v0A3.35,3.35,0,0,1,45.51,51c3-.74,6.3-1,8,.68,2.76,2.82,4.19,9.8,6.77,10.36s7.22.57,3.57-6.74S53.29,46.46,51.12,43.7c-.12-.16-.25-.32-.37-.5A3.45,3.45,0,0,1,51.1,39c.39-.48.63-.93,1.2-1.19.91-.42,1.73-1,2.72-.89,3.12.43,6.5,1.59,8.44,4.38,4.28,6.16,9.14,13,11,9.36,1.72-3.45-.73-10-4.72-15.21a3.34,3.34,0,0,1,2.53-5.39l.86,0c.27,0,.53,0,.79,0a3.17,3.17,0,0,1,2.82,1.15,9.38,9.38,0,0,1,1.41,2.62c1.42,4.16,1.07,7.85,3.8,9.51S86.78,41,86.19,35.46Z"/><circle class="cls-2" cx="67.23" cy="19.93" r="4.46"/><circle class="cls-2" cx="50.13" cy="26.11" r="4.46"/><circle class="cls-2" cx="37.89" cy="36.09" r="4.46"/><circle class="cls-2" cx="29.81" cy="51.42" r="4.46"/><circle class="cls-2" cx="27.19" cy="67.22" r="4.46"/><ellipse class="cls-3" cx="67.11" cy="16.96" rx="1.61" ry="1.13"/><ellipse class="cls-3" cx="50.13" cy="28.36" rx="1.61" ry="1.13"/><ellipse class="cls-3" cx="35.87" cy="33.95" rx="1.61" ry="1.13"/><ellipse class="cls-3" cx="28.8" cy="53.08" rx="1.61" ry="1.13"/><ellipse class="cls-3" cx="27.19" cy="69.47" rx="1.61" ry="1.13"/></g></g></svg>