<svg xmlns="http://www.w3.org/2000/svg" viewBox="0 0 120.24 120.24"><defs><style>.cls-1{fill:#f2f2f2;}.cls-2{fill:#eaeaea;}.cls-3{fill:#adadad;}.cls-4{fill:#916472;}.cls-5{fill:#aeaeae;}.cls-6{fill:#7f7f81;}.cls-7{fill:#000105;}.cls-8{fill:#564f53;}.cls-9{fill:#985a6a;}.cls-10{fill:#cd7a91;}</style></defs><title>Ресурс 4</title><g id="Слой_2" data-name="Слой 2"><g id="Слой_2-2" data-name="Слой 2"><circle class="cls-1" cx="60.12" cy="60.12" r="60.12"/><path class="cls-2" d="M89.34,65.1l-15,31.71a15.74,15.74,0,0,1-11.76,8.85,14.13,14.13,0,0,1-4.21,0,14.55,14.55,0,0,1-3.52-.93,15.07,15.07,0,0,1-8-7.54L32,65.75C24.61,50,30.64,30.89,46.17,23.06a31.86,31.86,0,0,1,43.17,42Z"/><path class="cls-3" d="M90.78,55.4v0c12.78-1.35,17.48-7.61,19-12.09,1.67-4.83-3.5-8.57-4.83-7.25-.9.89-10.67,2.54-16.89,3.5Z"/><path class="cls-2" d="M32.17,39.58c-6.22-1-16-2.61-16.89-3.5-1.33-1.32-6.5,2.42-4.84,7.25,1.54,4.48,6.24,10.74,19,12.09v0Z"/><path class="cls-3" d="M89.34,65.1l-15,31.71a15.64,15.64,0,0,1-13.75,9V19.64A31.86,31.86,0,0,1,89.34,65.1Z"/><path class="cls-3" d="M89.34,65.1l-15,31.71a15.64,15.64,0,0,1-13.75,9V19.64A31.86,31.86,0,0,1,89.34,65.1Z"/><path class="cls-4" d="M92.85,45.15c12.7-3.83.26,0,12.7-3.83,1.25,1.32-.38,4-4.86,5.42C96.37,48.11,92.45,47.11,92.85,45.15Z"/><path class="cls-4" d="M27.68,45.15C15,41.32,27.42,45.1,15,41.32c-1.26,1.32.37,4,4.85,5.42C24.16,48.11,28.09,47.11,27.68,45.15Z"/><path class="cls-5" d="M78.45,24.8a5.69,5.69,0,0,0,.11-1c0-4-4.49-7.17-10-7.17a13.63,13.63,0,0,0-3.68.51,5.13,5.13,0,0,0-9.06,0,13.65,13.65,0,0,0-3.69-.51c-5.54,0-10,3.21-10,7.17a4.9,4.9,0,0,0,.11,1c-3,.36-5.39,4-5.39,8.5,0,4.72,2.64,8.55,5.88,8.55a4.05,4.05,0,0,0,.7-.07A6.66,6.66,0,0,0,50.13,50a7.08,7.08,0,0,0,5.08-2.12,5.16,5.16,0,0,0,10.2,0A7.07,7.07,0,0,0,70.48,50a6.82,6.82,0,0,0,7-6.68,6.31,6.31,0,0,0-.19-1.51,4.15,4.15,0,0,0,.7.07c3.25,0,5.89-3.83,5.89-8.55C83.84,28.83,81.46,25.16,78.45,24.8Z"/><path class="cls-6" d="M84.15,33.31c0,4.71-2.63,8.54-5.89,8.54a4,4,0,0,1-.69-.06A6.65,6.65,0,0,1,70.8,50a7.08,7.08,0,0,1-5.08-2.12,5.17,5.17,0,0,1-5.1,4.36V14.4a5.16,5.16,0,0,1,4.53,2.72,13.63,13.63,0,0,1,3.68-.5c5.54,0,10,3.21,10,7.17a5.68,5.68,0,0,1-.11,1C81.78,25.17,84.15,28.84,84.15,33.31Z"/><circle class="cls-7" cx="51.66" cy="64.03" r="3.57"/><circle class="cls-7" cx="69.57" cy="64.03" r="3.57"/><path class="cls-8" d="M62.61,90.43v15.23a14.13,14.13,0,0,1-4.21,0V90.43Z"/><path class="cls-9" d="M69.57,83.73c0-2.69-4-5.3-8.95-5.3s-9,2.66-9,5.3,4,9.45,9,9.45S69.57,85.81,69.57,83.73Z"/><path class="cls-10" d="M60.62,78.43V93.18c-4.95,0-8.95-6.82-8.95-9.45S55.67,78.43,60.62,78.43Z"/></g></g></svg>