<svg xmlns="http://www.w3.org/2000/svg" viewBox="0 0 100 91.44"><defs><style>.cls-1{fill:#eaeaea;}.cls-2{fill:#adadad;}.cls-3{fill:#916472;}.cls-4{fill:#aeaeae;}.cls-5{fill:#7f7f81;}.cls-6{fill:#000105;}.cls-7{fill:#564f53;}.cls-8{fill:#985a6a;}.cls-9{fill:#cd7a91;}</style></defs><title>Ресурс 18</title><g id="Слой_2" data-name="Слой 2"><g id="Слой_2-2" data-name="Слой 2"><path class="cls-1" d="M79.23,50.7l-15,31.71a15.72,15.72,0,0,1-11.76,8.85,14.07,14.07,0,0,1-4.2,0,14.31,14.31,0,0,1-3.52-.93,15,15,0,0,1-8-7.54L21.91,51.35C14.49,35.63,20.52,16.49,36.05,8.66a31.86,31.86,0,0,1,43.18,42Z"/><path class="cls-2" d="M80.67,41v0c12.77-1.35,17.47-7.61,19-12.09,1.66-4.83-3.51-8.57-4.83-7.25-.9.89-10.68,2.54-16.9,3.5Z"/><path class="cls-1" d="M22.05,25.18c-6.22-1-16-2.61-16.89-3.5C3.83,20.36-1.34,24.1.33,28.93c1.53,4.48,6.23,10.74,19,12.09v0Z"/><path class="cls-2" d="M79.23,50.7l-15,31.71a15.63,15.63,0,0,1-13.75,9V5.24A31.86,31.86,0,0,1,79.23,50.7Z"/><path class="cls-2" d="M79.23,50.7l-15,31.71a15.63,15.63,0,0,1-13.75,9V5.24A31.86,31.86,0,0,1,79.23,50.7Z"/><path class="cls-3" d="M82.73,30.75c12.7-3.83.26-.05,12.7-3.83,1.26,1.32-.37,4-4.85,5.42C86.25,33.71,82.33,32.71,82.73,30.75Z"/><path class="cls-3" d="M17.57,30.75c-12.7-3.83-.26-.05-12.7-3.83-1.26,1.32.37,4,4.85,5.42C14.05,33.71,18,32.71,17.57,30.75Z"/><path class="cls-4" d="M68.33,10.4a4.9,4.9,0,0,0,.11-1c0-4-4.49-7.17-10-7.17a13.76,13.76,0,0,0-3.69.51,5.13,5.13,0,0,0-9.06,0A13.63,13.63,0,0,0,42,2.21c-5.55,0-10,3.21-10,7.17a5.69,5.69,0,0,0,.11,1c-3,.36-5.38,4-5.38,8.51,0,4.71,2.63,8.54,5.88,8.54a4.15,4.15,0,0,0,.7-.07,6.31,6.31,0,0,0-.19,1.51,6.83,6.83,0,0,0,7,6.68,7.07,7.07,0,0,0,5.07-2.12,5.16,5.16,0,0,0,10.2,0,7.08,7.08,0,0,0,5.08,2.12,6.66,6.66,0,0,0,6.77-8.19,4.05,4.05,0,0,0,.7.07c3.25,0,5.88-3.83,5.88-8.54C73.72,14.43,71.35,10.76,68.33,10.4Z"/><path class="cls-5" d="M74,18.91c0,4.71-2.63,8.54-5.89,8.54a4,4,0,0,1-.69-.06,6.22,6.22,0,0,1,.18,1.5,6.82,6.82,0,0,1-6.95,6.68,7.08,7.08,0,0,1-5.08-2.12,5.17,5.17,0,0,1-5.1,4.36V0A5.17,5.17,0,0,1,55,2.72a13.56,13.56,0,0,1,3.67-.5c5.55,0,10,3.21,10,7.17a5.67,5.67,0,0,1-.1,1C71.66,10.77,74,14.44,74,18.91Z"/><circle class="cls-6" cx="41.55" cy="49.63" r="3.57"/><circle class="cls-6" cx="59.45" cy="49.63" r="3.57"/><path class="cls-7" d="M52.49,76V91.26a14.07,14.07,0,0,1-4.2,0V76Z"/><path class="cls-8" d="M59.45,69.33c0-2.69-4-5.3-9-5.3s-9,2.66-9,5.3,4,9.45,9,9.45S59.45,71.41,59.45,69.33Z"/><path class="cls-9" d="M50.5,64V78.78c-5,0-9-6.82-9-9.45S45.55,64,50.5,64Z"/></g></g></svg>