<svg xmlns="http://www.w3.org/2000/svg" viewBox="0 0 81.83 88.33"><defs><style>.cls-1{fill:#bc6e47;}.cls-2{fill:#db8144;}.cls-3{fill:#75503a;}.cls-4{fill:#000105;}.cls-5{fill:#fff;}.cls-6{fill:#343131;}.cls-7{fill:#e8ab44;}.cls-8{fill:#714c38;}</style></defs><title>Ресурс 19</title><g id="Слой_2" data-name="Слой 2"><g id="Слой_2-2" data-name="Слой 2"><path class="cls-1" d="M81.83,84.06a4.25,4.25,0,0,1-1.26,3,4.2,4.2,0,0,1-1.92,1.1,3.93,3.93,0,0,1-1.09.15H37a4.28,4.28,0,0,1-4.27-4.27A4.3,4.3,0,0,1,37,79.79H77.56A4,4,0,0,1,78.9,80,4.27,4.27,0,0,1,81.83,84.06Z"/><path class="cls-1" d="M.7,61.69C2.6,47,16.21,33.52,29.45,33.52s27.74,12.7,29.23,27.41c2.63,26.13-9.8,28-29,27.27C7.92,87.34-2.43,85.78.7,61.69Z"/><path class="cls-2" d="M54.5,12.5s3.31-7.65-.89-10.58-9.49,1.63-9.49,1.63Z"/><path class="cls-2" d="M4.33,12.48S1,4.84,5.22,1.91s9.49,1.63,9.49,1.63Z"/><path class="cls-3" d="M52.49,12.12S55,6.46,51.83,4.29s-7,1.2-7,1.2Z"/><path class="cls-3" d="M6.4,12.12S4,6.46,7.06,4.29s7,1.2,7,1.2Z"/><path class="cls-2" d="M59.27,26.06a22.48,22.48,0,0,1-.2,3c-.09.76-.23,1.5-.39,2.25a24.19,24.19,0,0,1-4.46,9.31c-5.31,7-14.34,11.53-24.59,11.53-10,0-18.93-4.41-24.29-11.15A24.07,24.07,0,0,1,.7,31.67a22.58,22.58,0,0,1-.54-2.84,23.28,23.28,0,0,1,.57-8.51C3.69,8.69,15.5,0,29.63,0S55.49,8.63,58.5,20.19A22.45,22.45,0,0,1,59.27,26.06Z"/><circle class="cls-4" cx="17.42" cy="20.22" r="3.01"/><circle class="cls-4" cx="41.06" cy="20.22" r="3.01"/><circle class="cls-5" cx="18.53" cy="19.27" r="1.11"/><circle class="cls-5" cx="42.17" cy="19.27" r="1.11"/><path class="cls-6" d="M58.68,31.29a24.19,24.19,0,0,1-4.46,9.31L44,31.29Z"/><path class="cls-6" d="M59.27,26.06a22.48,22.48,0,0,1-.2,3L48.88,25l9.62-4.79A22.45,22.45,0,0,1,59.27,26.06Z"/><path class="cls-6" d="M15.11,31.67,5.34,41A24.07,24.07,0,0,1,.7,31.67Z"/><path class="cls-6" d="M9.93,25.3.16,28.83a23.28,23.28,0,0,1,.57-8.51Z"/><polygon class="cls-7" points="38.05 36.46 20.97 36.46 24.03 16.64 34.99 16.64 38.05 36.46"/><path class="cls-8" d="M21,37.19H38.05s-.67,7.53-8.06,7.53S21,37.19,21,37.19Z"/><path class="cls-8" d="M61.49,81v6.74a1.6,1.6,0,0,1-.13.62h-3a1.59,1.59,0,0,1-.12-.62V81a1.63,1.63,0,0,1,.51-1.18H61A1.64,1.64,0,0,1,61.49,81Z"/><path class="cls-8" d="M67.93,81v6.74a1.59,1.59,0,0,1-.12.62h-3a1.6,1.6,0,0,1-.13-.62V81a1.61,1.61,0,0,1,.53-1.18h2.21A1.63,1.63,0,0,1,67.93,81Z"/><path class="cls-8" d="M74.88,81v6.74a1.6,1.6,0,0,1-.13.62h-3a1.59,1.59,0,0,1-.12-.62V81a1.63,1.63,0,0,1,.51-1.18h2.21A1.64,1.64,0,0,1,74.88,81Z"/><path class="cls-8" d="M81.83,84.06a4.25,4.25,0,0,1-1.26,3,4.2,4.2,0,0,1-1.92,1.1,1.49,1.49,0,0,1-.07-.47V81a1.58,1.58,0,0,1,.32-1A4.27,4.27,0,0,1,81.83,84.06Z"/><path class="cls-8" d="M24.13,50.4c-1,0-1.93-.06-2.26-.09a.47.47,0,0,1,.07-.94c2,.16,4.44.1,4.9-.24.78-.59,2.76-2.53,2.54-4.42a.47.47,0,0,1,.41-.53.48.48,0,0,1,.52.41c.27,2.26-1.78,4.45-2.9,5.29A6.9,6.9,0,0,1,24.13,50.4Z"/><path class="cls-8" d="M35.6,50.4a6.9,6.9,0,0,1-3.28-.52c-1.12-.84-3.17-3-2.9-5.29a.49.49,0,0,1,.52-.41.47.47,0,0,1,.41.53c-.22,1.89,1.76,3.83,2.54,4.42.47.35,2.91.39,4.9.24a.47.47,0,0,1,.07.94C37.53,50.34,36.61,50.4,35.6,50.4Z"/></g></g></svg>