<svg xmlns="http://www.w3.org/2000/svg" xmlns:xlink="http://www.w3.org/1999/xlink" viewBox="0 0 654.42 594.15"><defs><style>.cls-1{fill:#a5555b;}.cls-2{fill:#e63a36;}.cls-3{fill:#781414;}.cls-4{fill:#a31f24;}.cls-5{fill:#eeefee;}.cls-6{fill:#d45a56;}.cls-7{fill:#d14a45;}.cls-8{fill:#fff;}.cls-9{fill:url(#Безымянный_градиент_9);}.cls-10{fill:url(#Безымянный_градиент_9-2);}.cls-11{fill:#424342;opacity:0.5;}.cls-12{fill:#d72928;}.cls-13{fill:#0d98ff;}.cls-14{fill:#2a04ff;}.cls-15{fill:#53d8ff;}</style><linearGradient id="Безымянный_градиент_9" x1="328.16" y1="-670.66" x2="326.86" y2="-126.72" gradientTransform="matrix(1, 0, 0, 0.25, 0.24, 547.2)" gradientUnits="userSpaceOnUse"><stop offset="0" stop-color="#fff"/><stop offset="0.25" stop-color="#fafafa"/><stop offset="0.55" stop-color="#ebeaea"/><stop offset="0.89" stop-color="#d2d1d1"/><stop offset="1" stop-color="#c8c7c7"/></linearGradient><linearGradient id="Безымянный_градиент_9-2" x1="328.15" y1="-722.26" x2="326.84" y2="-178.31" xlink:href="#Безымянный_градиент_9"/></defs><title>Ресурс 1</title><g id="Слой_2" data-name="Слой 2"><g id="Слой_4" data-name="Слой 4"><rect class="cls-1" y="21" width="654.42" height="573.15" rx="86.08"/><rect class="cls-2" width="654.42" height="573.15" rx="86.08"/><rect class="cls-3" x="25.89" y="18.66" width="601.72" height="519.68" rx="86.08"/><rect class="cls-4" x="25.89" y="31.66" width="601.72" height="519.68" rx="86.08"/><rect class="cls-5" x="58.79" y="88.72" width="538.93" height="418.1" rx="53.1"/><rect class="cls-6" x="79.38" y="111.58" width="496.87" height="372.38" rx="53.1"/><path class="cls-7" d="M328.42,111.58V484L132.71,484A53.33,53.33,0,0,1,79.44,431l-.11-266.18a53.32,53.32,0,0,1,53.22-53.12Z"/><path class="cls-8" d="M388,216.74s-33-62.94-59.26-65.68c-11.15-1.17-77.2,54.19-96.44,158.93-17.46,95-4.17,121.56-4.17,121.56,78.67,12.15,61.58-6.51,61.58-6.51-31.77-70.45-11.66-91.6-6.82-99.73s50.61-32.53,79.65-8.62-15.41,109.16-7.66,111.47,58.38,3,58.38,3C443.94,340.22,388,216.74,388,216.74Zm-32.24,43.82c-31.31,9.89-51,9.83-61.17,8.44-5.2-.71-11.24-2.12-11.5-7.36-2.26-45.44,30.34-68.29,45.09-68.73,15.58-.46,37.51,42.45,35.13,58.81A10.93,10.93,0,0,1,355.79,260.56Z"/><rect class="cls-9" x="58.41" y="393.28" width="538.93" height="106.19" rx="53.1"/><rect class="cls-5" x="58.79" y="78.03" width="538.93" height="418.1" rx="53.1"/><rect class="cls-6" x="79.38" y="100.89" width="496.87" height="372.38" rx="53.1"/><path class="cls-7" d="M328.42,100.89V473.27l-195.71.08a53.33,53.33,0,0,1-53.27-53.08l-.11-266.18A53.32,53.32,0,0,1,132.55,101Z"/><path class="cls-8" d="M388,206s-33-62.93-59.26-65.68c-11.15-1.17-77.2,54.2-96.44,158.94-17.46,95-4.17,121.56-4.17,121.56,78.67,12.15,61.58-6.51,61.58-6.51-31.77-70.45-11.66-91.6-6.82-99.74s50.61-32.53,79.65-8.61-15.41,109.15-7.66,111.46,58.38,3,58.38,3C443.94,329.53,388,206,388,206Zm-32.24,43.83c-31.31,9.89-51,9.82-61.17,8.44-5.2-.71-11.24-2.12-11.5-7.36-2.26-45.45,30.34-68.3,45.09-68.73,15.58-.47,37.51,42.45,35.13,58.81A11,11,0,0,1,355.79,249.87Z"/><rect class="cls-10" x="58.41" y="380.28" width="538.93" height="106.19" rx="53.1"/><rect class="cls-5" x="58.79" y="65.85" width="538.93" height="418.1" rx="53.1"/><rect class="cls-2" x="79.38" y="88.71" width="496.87" height="372.38" rx="53.1"/><path class="cls-7" d="M328.42,88.72V461.1l-195.71.08A53.33,53.33,0,0,1,79.44,408.1l-.11-266.18A53.32,53.32,0,0,1,132.55,88.8Z"/><path class="cls-8" d="M388,193.87s-33-62.94-59.26-65.68c-11.15-1.17-77.2,54.19-96.44,158.94-17.46,95-4.17,121.56-4.17,121.56,78.67,12.15,61.58-6.52,61.58-6.52-31.77-70.45-11.66-91.59-6.82-99.73s50.61-32.53,79.65-8.61S347.16,403,354.91,405.29s58.38,3,58.38,3C443.94,317.35,388,193.87,388,193.87Zm-32.24,43.82c-31.31,9.89-51,9.83-61.17,8.44-5.2-.7-11.24-2.12-11.5-7.36-2.26-45.44,30.34-68.29,45.09-68.73,15.58-.46,37.51,42.46,35.13,58.81A10.93,10.93,0,0,1,355.79,237.69Z"/><rect class="cls-11" x="50.64" y="63.92" width="538.93" height="418.1" rx="53.1" transform="translate(-52.33 77.33) rotate(-12.74)"/><rect class="cls-5" x="48.64" y="55.92" width="538.93" height="418.1" rx="53.1" transform="translate(-50.61 76.69) rotate(-12.74)"/><rect class="cls-2" x="69.24" y="78.88" width="496.87" height="372.38" rx="53.1" transform="translate(-50.64 76.6) rotate(-12.74)"/><path class="cls-12" d="M277.28,83.32l82,363.24L168.37,489.73a53.34,53.34,0,0,1-63.66-40.05L46,190.06a53.33,53.33,0,0,1,40.23-63.54Z"/><path class="cls-8" d="M358.57,172.77s-46.1-54.12-72.26-51c-11.14,1.32-63.38,69.87-59.09,176.27,3.89,96.52,22.7,119.5,22.7,119.5,79.41-5.47,58.63-19.91,58.63-19.91-46.5-61.73-31.54-86.78-28.61-95.79s42.21-42.87,75.8-25.93,9,109.86,17.07,110.41,57.6-9.94,57.6-9.94C440.29,280.91,358.57,172.77,358.57,172.77Zm-21.8,49.84c-28.36,16.54-47.54,20.81-57.81,21.7-5.23.46-11.43.41-12.84-4.64-12.2-43.83,14.56-73.3,28.85-77,15.1-3.88,45.93,33.16,47.22,49.64A10.94,10.94,0,0,1,336.77,222.61Z"/><circle class="cls-8" cx="475.99" cy="344.65" r="10.83"/><rect class="cls-13" x="483.01" y="345.08" width="6.71" height="18.72" rx="2.83" transform="translate(-103.39 474.3) rotate(-47.57)"/><circle class="cls-8" cx="556.63" cy="297.43" r="10.83"/><rect class="cls-13" x="538.54" y="301.31" width="16.72" height="6.71" rx="2.83" transform="translate(-69.43 414.45) rotate(-39.22)"/><circle class="cls-14" cx="498.94" cy="362.24" r="15.96"/><rect class="cls-13" x="497.15" y="335.97" width="35.39" height="6.71" rx="2.83" transform="translate(-64.33 550.91) rotate(-53.46)"/><circle class="cls-14" cx="530.96" cy="316.69" r="15.96"/><rect class="cls-13" x="508.24" y="278.38" width="6.71" height="35.39" rx="2.83" transform="translate(-60.99 442.83) rotate(-44.43)"/><circle class="cls-15" cx="492.54" cy="276.12" r="15.39"/><circle class="cls-8" cx="524.03" cy="386.7" r="10.83"/><rect class="cls-13" x="511.15" y="368.99" width="6.71" height="18.72" rx="2.83" transform="translate(-117.76 468.38) rotate(-44.43)"/><rect class="cls-13" x="540.74" y="315.68" width="6.71" height="18.72" rx="2.83" transform="translate(-28.2 597.37) rotate(-56.3)"/><rect class="cls-13" x="493.34" y="255.1" width="20.98" height="6.71" rx="2.83" transform="translate(9.27 534.23) rotate(-56.3)"/><rect class="cls-13" x="475.53" y="369.29" width="18.72" height="6.71" rx="2.83" transform="translate(-125.26 413.94) rotate(-41.41)"/><circle class="cls-8" cx="511.06" cy="246.03" r="10.83"/><circle class="cls-8" cx="557.31" cy="334.25" r="10.83"/><circle class="cls-8" cx="471.39" cy="383.6" r="10.83"/></g></g></svg>