<svg xmlns="http://www.w3.org/2000/svg" viewBox="0 0 43.35 53.09"><defs><style>.cls-1{fill:#78cdd4;}</style></defs><title>Ресурс 5</title><g id="Слой_2" data-name="Слой 2"><g id="Слой_2-2" data-name="Слой 2"><path class="cls-1" d="M39.82,53.09H5.35A4.21,4.21,0,0,1,4.73,53C2.44,52.6,0,50.72,0,46.74V8.37A8.43,8.43,0,0,1,6.41.13a3.42,3.42,0,0,1,1-.13h35a1,1,0,0,1,0,2h-35A1.4,1.4,0,0,0,7,2.06,6.38,6.38,0,0,0,2,8.37c0,4.76,4.59,5.44,5.52,5.53h32.3a3.54,3.54,0,0,1,3.53,3.53V49.56A3.54,3.54,0,0,1,39.82,53.09ZM2,13.53V46.74c0,3.38,2.17,4.15,3.1,4.33a1,1,0,0,0,.25,0H39.82a1.54,1.54,0,0,0,1.53-1.53V17.43a1.54,1.54,0,0,0-1.53-1.53H7.33A8.78,8.78,0,0,1,2,13.53Z"/><path class="cls-1" d="M37.42,9.13H8.28a1,1,0,1,1,0-2H37.42a1,1,0,0,1,0,2Z"/><path class="cls-1" d="M28.21,44a1,1,0,0,1-.95-.68L21.63,26.37l-6.21,17a1,1,0,1,1-1.87-.68L20.73,23a1,1,0,0,1,1-.65,1,1,0,0,1,.93.68l6.54,19.66A1,1,0,0,1,28.52,44,1.12,1.12,0,0,1,28.21,44Z"/><path class="cls-1" d="M26.38,38.49H16.5a1,1,0,0,1,0-2h9.88a1,1,0,1,1,0,2Z"/></g></g></svg>
