<svg xmlns="http://www.w3.org/2000/svg" viewBox="0 0 57.04 53.11"><defs><style>.cls-1,.cls-2{fill:none;stroke:#78cdd4;stroke-linecap:round;stroke-linejoin:round;}.cls-1{stroke-width:4px;}.cls-2{stroke-width:3px;}.cls-3{fill:#78cdd4;}</style></defs><title>Ресурс 8</title><g id="Слой_2" data-name="Слой 2"><g id="Слой_2-2" data-name="Слой 2"><rect class="cls-1" x="14.18" y="2" width="28.63" height="43.31" rx="4.54"/><path class="cls-1" d="M17.61,50.41,15,51a4.57,4.57,0,0,1-5.43-3.45L2.11,14.14A4.56,4.56,0,0,1,5.56,8.72l3.53-.78"/><path class="cls-1" d="M39.43,50.41l2.66.59a4.56,4.56,0,0,0,5.42-3.45l7.42-33.41a4.56,4.56,0,0,0-3.45-5.42L48,7.94"/><line class="cls-2" x1="21.37" y1="7.64" x2="21.37" y2="13.17"/><line class="cls-2" x1="24.14" y1="10.41" x2="18.61" y2="10.41"/><line class="cls-2" x1="35.81" y1="34.64" x2="35.81" y2="40.17"/><line class="cls-2" x1="38.57" y1="37.41" x2="33.04" y2="37.41"/><circle class="cls-3" cx="28.5" cy="27.59" r="1.94"/><circle class="cls-3" cx="28.5" cy="19.72" r="1.94"/><circle class="cls-3" cx="24.56" cy="23.65" r="1.94"/><circle class="cls-3" cx="32.44" cy="23.65" r="1.94"/></g></g></svg>
